<?xml version="1.0" standalone="no"?><!DOCTYPE svg PUBLIC "-//W3C//DTD SVG 1.1//EN" "http://www.w3.org/Graphics/SVG/1.1/DTD/svg11.dtd"><svg t="1581323304724" class="icon" viewBox="0 0 1024 1024" version="1.1" xmlns="http://www.w3.org/2000/svg" p-id="3445" xmlns:xlink="http://www.w3.org/1999/xlink" width="64" height="64"><defs><style type="text/css"></style></defs><path d="M405.97504 631.35744c-3.33824 2.27328-7.7824 3.42016-12.20608 3.42016-9.99424 0-17.77664-5.71392-22.20032-13.7216l-2.23232-3.42016-71.0656-160.07168c-1.08544-2.27328-1.08544-3.42016-1.08544-5.71392 0-6.8608 5.5296-13.7216 13.312-13.7216 3.33824 0 5.55008 1.14688 7.7824 2.29376l83.2512 61.72672c5.55008 4.58752 13.312 6.8608 21.0944 6.8608 4.44416 0 8.88832-1.1264 13.312-2.27328l393.0112-180.6336C757.90336 240.31232 642.4576 184.32 511.44704 184.32 297.1648 184.32 122.88 334.09024 122.88 518.16448c0 100.61824 52.18304 190.93504 134.3488 251.53536 6.63552 4.56704 11.07968 12.57472 11.07968 21.7088 0 3.44064-1.10592 5.7344-1.10592 8.00768-6.656 25.14944-16.65024 65.16736-17.75616 67.46112-1.10592 3.42016-2.23232 6.8608-2.23232 10.28096 0 6.8608 5.55008 13.7216 13.312 13.7216a15.70816 15.70816 0 0 0 7.7824-2.29376l85.48352-50.29888c6.67648-3.42016 13.312-5.7344 21.0944-5.7344 4.44416 0 7.7824 1.16736 11.10016 2.31424 39.97696 11.42784 82.16576 18.28864 126.5664 18.28864C726.8352 853.15584 901.12 703.3856 901.12 519.31136c0-56.03328-15.54432-108.62592-44.40064-154.35776l-448.512 264.11008-2.23232 2.29376z" p-id="3446" data-spm-anchor-id="a313x.7781069.0.i16" class="selected" fill="#ffffff"></path></svg>